<?xml version="1.0" standalone="no"?>
<!DOCTYPE svg PUBLIC "-//W3C//DTD SVG 20010904//EN"
 "http://www.w3.org/TR/2001/REC-SVG-20010904/DTD/svg10.dtd">
<svg version="1.0" xmlns="http://www.w3.org/2000/svg"
 width="638.000000pt" height="638.000000pt" viewBox="0 0 638.000000 638.000000"
 preserveAspectRatio="xMidYMid meet">
<metadata>
Created by potrace 1.14, written by Peter Selinger 2001-2017
</metadata>
<g transform="translate(0.000000,638.000000) scale(0.100000,-0.100000)"
fill="#000000" stroke="none">
<path d="M3588 5375 c-3 -3 -14 -7 -24 -10 -83 -17 -176 -79 -216 -143 -19
-30 -19 -39 -9 -120 6 -48 14 -103 16 -122 3 -20 20 -71 38 -113 31 -71 33
-82 24 -122 -8 -36 -13 -43 -24 -33 -17 13 -89 -34 -143 -95 -80 -90 -126
-343 -95 -521 9 -49 15 -128 15 -175 -1 -56 5 -115 19 -170 25 -103 20 -131
-20 -131 -16 0 -29 -4 -29 -9 0 -5 -10 -13 -22 -16 -13 -4 -50 -20 -84 -36
-33 -16 -65 -29 -70 -29 -5 0 -16 -9 -24 -20 -9 -12 -21 -18 -31 -15 -10 3
-20 1 -24 -5 -3 -5 -14 -10 -24 -10 -10 0 -24 -7 -31 -15 -7 -8 -21 -15 -31
-15 -9 0 -24 -7 -33 -15 -8 -8 -21 -15 -28 -15 -7 0 -24 -9 -38 -20 -14 -11
-33 -20 -42 -20 -21 0 -65 -18 -98 -41 -14 -9 -29 -18 -35 -19 -19 -5 -51 -18
-136 -59 -48 -22 -89 -41 -92 -41 -3 0 -61 -27 -130 -60 -68 -33 -128 -60
-134 -60 -5 0 -28 -14 -51 -31 -24 -17 -45 -29 -49 -26 -3 3 -49 -16 -103 -44
-54 -27 -105 -49 -114 -49 -9 0 -22 -12 -28 -26 -9 -19 -18 -24 -34 -21 -16 3
-21 0 -17 -10 3 -7 13 -13 23 -13 12 0 19 -10 22 -31 4 -25 1 -32 -19 -40 -12
-5 -23 -15 -23 -23 0 -21 92 26 117 60 20 26 22 27 54 14 18 -8 46 -13 61 -11
16 1 28 -2 28 -8 0 -6 -5 -11 -11 -11 -21 0 11 -29 62 -57 27 -14 46 -30 43
-35 -3 -5 -11 -7 -17 -5 -7 2 -22 0 -34 -4 -24 -9 -33 5 -10 15 15 6 -21 38
-37 33 -6 -2 -18 4 -28 13 -22 20 -72 20 -76 0 -1 -9 13 -23 35 -35 21 -11 49
-30 62 -42 13 -13 28 -20 33 -17 6 4 5 -3 -1 -15 -6 -11 -23 -24 -36 -27 -14
-3 -25 -12 -25 -18 0 -15 -72 -86 -88 -86 -7 0 -12 13 -12 28 0 23 -10 35 -47
62 -27 18 -53 40 -60 48 -19 23 -41 7 -49 -35 -7 -35 -8 -36 -14 -13 -4 14 -3
33 2 43 5 10 7 21 4 24 -3 3 -10 -6 -17 -20 -6 -13 -23 -30 -38 -37 -14 -7
-33 -16 -41 -20 -18 -8 -26 -50 -11 -50 6 0 11 7 11 15 0 20 36 19 44 -1 8
-21 -11 -44 -36 -44 -25 0 -69 23 -89 47 -18 22 -10 57 12 59 56 4 55 4 36 15
-21 12 -111 -7 -102 -22 3 -4 -13 -7 -36 -7 -53 1 -73 -17 -35 -32 15 -5 36
-10 47 -10 10 0 19 -5 19 -11 0 -6 7 -8 16 -5 9 4 28 -4 46 -19 16 -14 42 -25
56 -25 15 0 34 -6 42 -13 20 -16 40 -63 39 -90 -1 -17 -2 -18 -6 -5 -2 10 -8
18 -13 18 -5 0 -11 -8 -13 -17 -4 -15 -5 -15 -6 -2 -1 21 -43 39 -89 39 -20 0
-66 7 -101 15 -52 13 -66 13 -73 3 -13 -22 -3 -33 33 -34 19 0 44 -6 57 -13
14 -7 22 -8 22 -1 0 5 5 10 10 10 6 0 10 -6 10 -14 0 -8 10 -14 23 -15 21 0
60 -5 135 -17 39 -6 43 -31 6 -40 -14 -4 -54 -4 -88 -2 -53 5 -63 3 -63 -11 0
-9 4 -22 10 -28 6 -9 5 -18 -3 -28 -10 -12 -10 -19 -2 -27 7 -7 12 -21 12 -31
0 -14 4 -17 18 -12 9 4 27 10 40 13 13 2 26 11 29 18 7 19 23 18 23 -2 0 -12
5 -15 23 -9 20 7 88 8 93 2 1 -1 -1 -16 -3 -34 -5 -28 -9 -31 -46 -35 -23 -3
-55 -1 -72 4 -19 5 -31 4 -33 -2 -3 -7 -8 -7 -15 -1 -7 5 -38 12 -69 16 -48 6
-59 5 -64 -9 -9 -24 3 -50 19 -39 15 11 67 16 67 5 0 -4 39 -8 88 -9 155 -2
145 -1 139 -23 -3 -12 0 -20 7 -20 7 0 21 -9 31 -20 14 -16 15 -20 3 -20 -8 0
-23 6 -33 14 -17 12 -24 12 -47 0 -32 -16 -37 -42 -10 -50 9 -3 29 -12 43 -20
14 -7 29 -11 33 -7 3 3 6 1 6 -5 0 -6 -16 -24 -36 -40 l-36 -30 42 -103 c23
-57 51 -124 62 -149 11 -24 21 -49 23 -55 2 -13 35 -89 93 -218 12 -26 22 -53
22 -60 0 -6 8 -21 16 -32 15 -20 15 -20 30 -1 8 11 14 15 14 9 0 -6 -7 -16
-15 -23 -18 -15 -12 -44 22 -111 13 -26 23 -50 23 -55 0 -4 7 -16 17 -26 9
-10 18 -30 19 -45 2 -14 7 -29 12 -32 5 -3 13 -21 17 -40 4 -19 14 -42 23 -50
14 -14 15 -13 8 12 -4 16 -2 27 4 27 5 0 13 -19 17 -42 3 -24 8 -37 11 -30 2
6 12 12 23 12 13 0 19 7 19 21 0 16 -5 20 -19 16 -12 -3 -22 1 -25 10 -10 26
-6 33 18 33 33 0 42 17 15 25 -17 6 -19 9 -8 16 12 8 11 11 -3 20 -36 20 -15
75 35 92 9 4 17 14 17 23 0 17 -10 16 -67 -1 -17 -6 -23 -3 -23 8 0 9 5 19 11
22 6 5 4 12 -8 20 -10 7 -15 16 -11 20 6 6 48 -13 58 -27 10 -13 51 4 46 19
-3 8 -1 11 4 8 6 -4 17 0 25 8 8 9 24 13 35 10 14 -4 20 0 20 11 0 9 7 16 15
16 8 0 15 -5 15 -10 0 -6 11 -3 25 6 14 9 28 14 32 10 4 -3 15 1 25 11 15 13
18 13 18 2 0 -8 9 -21 20 -29 25 -18 25 -25 0 -52 -15 -16 -17 -25 -9 -40 5
-10 14 -16 20 -12 6 4 6 11 -2 20 -9 12 -8 14 9 12 11 -2 20 -1 20 2 0 3 18
25 40 48 86 93 119 142 102 152 -9 6 -7 11 8 19 11 6 27 11 34 11 7 0 27 17
44 38 84 103 134 174 129 182 -4 6 -10 8 -15 5 -4 -3 -13 1 -19 9 -6 7 -22 12
-36 11 -14 -2 -27 1 -31 6 -3 5 -16 9 -28 9 -26 0 -120 26 -148 41 -10 5 -25
9 -33 9 -9 0 -56 12 -106 27 l-89 27 0 64 c0 49 4 68 17 77 15 11 14 12 -10
12 -27 1 -27 0 -27 -74 0 -66 -2 -74 -17 -69 -10 3 -40 10 -68 17 -27 7 -59
17 -70 23 -20 11 -27 13 -57 15 -26 2 -22 20 8 33 26 12 104 85 104 97 0 6 76
51 86 51 2 0 4 -18 4 -41 0 -24 4 -38 10 -34 6 3 10 32 10 64 0 48 4 61 24 78
13 12 26 20 28 18 2 -2 25 15 51 39 33 30 56 43 75 42 25 -1 27 -4 27 -45 0
-24 5 -46 11 -48 12 -4 24 27 24 63 0 12 11 26 25 34 30 16 17 30 -27 30 -16
0 -28 4 -28 8 0 13 65 72 79 72 8 0 10 7 6 20 -7 22 18 55 35 45 12 -7 130 62
130 76 0 6 6 7 13 2 24 -15 87 -14 94 3 3 8 1 20 -4 25 -6 6 -8 20 -6 33 5 25
45 55 51 38 2 -6 10 -8 17 -6 9 4 13 16 10 37 -5 32 -5 32 7 6 9 -22 18 -27
50 -27 21 -1 38 3 38 7 0 4 18 6 40 4 l40 -3 0 46 0 46 -42 -4 c-52 -4 -60 14
-15 35 18 9 52 35 75 59 l43 43 -7 -43 c-4 -28 -3 -42 5 -42 6 0 11 6 11 13 1
6 7 1 14 -13 10 -17 11 -30 5 -43 -12 -21 -4 -37 19 -37 37 0 -8 -22 -47 -23
-33 -1 -41 -5 -41 -19 0 -14 6 -17 24 -14 32 6 25 -17 -10 -33 -14 -6 -23 -15
-20 -20 11 -18 -6 -41 -30 -41 -13 0 -25 5 -25 10 -1 6 -2 16 -3 23 0 6 -12
12 -26 12 -22 0 -25 -4 -25 -38 0 -27 5 -39 18 -43 10 -3 21 -3 25 1 4 3 12
-22 18 -57 10 -52 9 -66 -2 -79 -16 -18 -18 -41 -5 -55 17 -17 17 -94 0 -94
-6 0 -8 9 -4 20 5 15 2 20 -12 20 -16 0 -19 -8 -19 -50 0 -46 2 -49 24 -47 13
1 28 7 34 14 8 10 14 9 32 -2 29 -19 56 -4 36 20 -10 11 -15 13 -20 4 -4 -6
-13 -8 -20 -4 -14 8 9 32 53 55 16 8 24 16 18 18 -27 9 -7 20 28 16 22 -3 42
0 46 6 3 5 -1 10 -10 10 -9 0 -13 5 -10 10 8 13 52 13 60 0 3 -6 -1 -13 -9
-16 -9 -4 -16 -18 -16 -34 0 -19 -10 -36 -30 -53 -16 -14 -30 -28 -30 -30 0
-3 17 -1 37 3 20 5 41 6 46 3 6 -3 7 -1 3 5 -4 7 -1 12 8 12 24 0 19 -18 -14
-53 -16 -17 -27 -34 -24 -37 3 -3 18 9 32 25 15 17 39 35 52 42 l25 12 -23 7
c-16 4 -21 12 -17 24 4 14 1 16 -20 12 -20 -3 -25 0 -25 16 0 31 28 35 58 7
19 -18 28 -21 34 -12 11 17 66 9 90 -15 21 -21 18 -38 -4 -21 -14 12 -32 7
-68 -19 -18 -13 -21 -21 -13 -29 6 -6 10 -18 7 -25 -14 -46 -13 -45 -35 -34
-33 18 -79 -5 -79 -40 0 -22 7 -30 33 -41 17 -8 36 -14 40 -14 5 0 19 -23 33
-50 19 -40 24 -66 24 -127 l0 -77 -47 3 c-27 2 -80 7 -120 11 -76 8 -87 4
-111 -40 -7 -14 -7 -26 0 -38 5 -10 8 -35 6 -55 l-3 -37 130 -32 c72 -18 139
-37 150 -43 18 -10 69 -21 163 -37 24 -4 36 -1 46 12 8 11 31 19 64 23 55 5
62 -1 42 -39 -8 -13 -7 -19 0 -19 6 0 13 8 16 18 3 9 10 25 15 34 13 25 12 28
-13 29 -22 1 -22 1 2 9 14 4 32 8 40 9 13 1 13 0 0 -9 -11 -7 -12 -12 -4 -17
21 -14 4 -73 -23 -84 -13 -5 -22 -13 -19 -18 9 -14 79 -21 93 -10 9 8 17 7 28
-5 11 -11 12 -16 4 -16 -43 0 41 -21 96 -24 17 -1 48 -12 69 -25 35 -22 41
-23 77 -11 34 11 38 16 33 37 -5 17 0 30 17 47 49 49 70 88 105 193 28 86 24
130 -12 139 -24 6 -31 18 -16 28 5 3 19 -4 31 -15 21 -20 23 -20 42 -3 21 19
26 59 8 70 -7 4 -2 11 13 18 12 6 24 20 26 30 3 11 0 16 -7 11 -6 -3 -8 -12
-4 -18 4 -7 -1 -6 -11 2 -11 9 -13 17 -6 21 6 4 9 13 7 21 -2 8 -2 11 0 7 15
-27 42 16 74 115 11 34 26 77 35 95 8 18 12 36 9 42 -3 5 4 26 15 47 11 21 20
44 20 51 0 8 6 28 14 45 8 18 22 57 31 87 10 30 21 64 26 75 12 30 47 131 70
205 11 36 29 84 40 108 10 23 19 51 19 62 0 10 5 22 10 25 6 3 10 16 10 28 0
19 21 80 53 157 6 14 11 37 13 51 1 14 9 38 19 52 9 15 15 36 12 47 -3 11 -2
20 2 20 4 0 13 19 20 43 7 23 20 54 28 70 8 15 11 36 8 47 -4 11 -3 20 2 20 9
0 35 54 38 79 1 9 7 29 13 44 7 16 10 32 7 37 -3 5 4 25 16 44 12 21 16 36 10
36 -7 0 -14 -7 -17 -15 -4 -8 -10 -15 -15 -15 -16 0 -10 22 12 41 17 15 18 20
7 38 -14 22 -28 28 -28 11 0 -5 5 -10 10 -10 6 0 10 -7 10 -15 0 -8 -4 -15
-10 -15 -5 0 -10 5 -10 10 0 6 -5 10 -11 10 -6 0 -7 -5 -2 -12 11 -19 11 -71
-1 -86 -7 -10 -5 -16 4 -22 8 -5 12 -11 9 -14 -3 -3 -15 3 -27 14 -26 24 -29
14 -6 -19 15 -21 15 -24 0 -39 -14 -14 -18 -15 -25 -3 -6 9 -11 10 -15 2 -4
-6 2 -21 13 -33 23 -24 27 -38 11 -38 -5 0 -10 -5 -10 -11 0 -6 -7 -17 -15
-25 -22 -22 -18 -1 5 28 l19 25 -27 23 c-18 14 -23 24 -14 27 14 6 16 33 2 33
-5 0 -10 -7 -10 -15 0 -8 -4 -15 -10 -15 -5 0 -10 5 -10 10 0 6 -5 10 -11 10
-8 0 -7 -5 1 -15 7 -9 10 -19 6 -22 -4 -4 -11 -1 -16 7 -5 8 -12 11 -16 8 -3
-4 1 -14 10 -23 8 -9 20 -24 25 -33 5 -9 13 -13 18 -8 4 5 2 11 -4 13 -14 5
-18 33 -5 33 4 0 13 -9 20 -21 14 -22 9 -34 -30 -70 -10 -9 -18 -21 -18 -28 0
-6 -4 -11 -10 -11 -5 0 -10 -6 -10 -14 0 -8 -6 -16 -12 -19 -7 -2 -10 -8 -6
-12 4 -4 13 -3 21 3 10 8 16 6 26 -11 11 -18 11 -20 0 -9 -17 16 -29 15 -29
-3 0 -8 -4 -15 -10 -15 -14 0 -12 -28 2 -32 9 -3 8 -10 -5 -22 -17 -17 -19
-17 -42 10 -14 16 -25 32 -25 37 0 12 18 8 22 -5 3 -9 9 -8 21 4 20 20 22 34
5 42 -10 5 -10 7 0 12 6 3 12 12 12 19 0 7 6 15 12 17 9 3 8 9 -4 21 -21 21
-35 22 -18 2 17 -20 5 -32 -15 -15 -18 15 -21 0 -3 -18 6 -6 8 -15 4 -19 -4
-4 -11 -1 -16 7 -5 8 -12 11 -16 7 -4 -4 3 -15 14 -26 20 -17 30 -41 17 -41
-3 0 -17 12 -30 28 -13 15 -25 21 -25 15 0 -7 5 -13 10 -13 15 0 12 -19 -4
-36 -23 -23 -39 -18 -25 9 11 20 11 21 -4 8 -15 -12 -17 -11 -17 8 0 11 -5 21
-11 21 -5 0 -7 -4 -4 -10 3 -5 1 -10 -4 -10 -6 0 -11 -7 -11 -17 0 -14 -3 -14
-22 3 l-21 19 18 -29 c18 -26 20 -27 32 -10 11 15 13 16 13 2 0 -9 -6 -18 -12
-21 -10 -4 -10 -7 0 -18 29 -31 9 -27 -25 4 -31 29 -39 33 -55 24 -10 -7 -16
-16 -14 -22 2 -5 -8 -23 -23 -40 l-26 -30 26 23 c31 27 42 28 34 2 -6 -20 9
-28 20 -10 4 6 12 4 22 -5 8 -9 12 -19 8 -23 -4 -4 -10 -1 -12 6 -6 17 -23 15
-23 -3 0 -10 -10 -15 -30 -15 -16 0 -30 -5 -30 -11 0 -6 -9 -9 -20 -6 -12 3
-20 1 -19 -6 3 -26 -2 -34 -22 -32 -11 1 -25 8 -29 16 -8 11 -12 11 -23 -5
-14 -19 -15 -18 -21 11 -5 19 -17 35 -34 43 -15 7 -22 14 -17 16 6 2 10 41 9
91 -1 94 13 137 43 126 10 -4 40 20 93 76 53 55 82 79 93 75 10 -3 20 2 27 15
6 12 19 21 29 21 16 0 18 -11 18 -94 1 -52 4 -100 8 -105 9 -16 25 -13 25 5 0
8 5 12 11 8 6 -3 4 5 -5 18 -12 18 -15 45 -13 105 2 83 -4 106 -25 85 -7 -7
-21 -12 -31 -12 -16 0 -17 3 -7 15 7 8 17 15 22 15 16 0 80 59 106 97 19 27
28 33 45 27 18 -5 16 0 -12 30 -31 32 -33 38 -23 61 15 33 15 35 -3 35 -8 0
-15 -5 -15 -11 0 -15 -52 -2 -66 16 -5 7 -9 49 -8 94 l2 80 48 45 c27 25 52
46 55 46 3 0 16 -9 29 -20 12 -11 27 -17 33 -13 6 3 1 10 -12 14 -33 13 -37
38 -10 56 13 9 43 36 66 59 23 23 43 40 45 38 3 -2 30 23 62 56 35 36 52 60
43 60 -9 0 -28 -11 -43 -25 -15 -14 -31 -25 -37 -25 -6 0 -26 -12 -46 -27 -33
-26 -78 -53 -87 -53 -2 0 -1 7 2 15 5 11 -1 15 -20 15 -14 0 -26 6 -26 13 0 8
-2 9 -8 1 -4 -6 -17 -14 -29 -18 -13 -4 -23 -11 -23 -15 0 -14 52 -32 74 -25
21 6 21 6 1 -12 -35 -34 -103 -84 -111 -84 -5 0 -25 -14 -44 -30 -43 -37 -51
-38 -44 -2 3 16 -1 45 -10 66 -12 30 -13 41 -3 56 9 15 9 22 -1 32 -11 11 -16
10 -27 -5 -19 -26 -23 -13 -24 75 -1 43 -8 97 -15 120 -10 28 -12 47 -5 59 13
26 11 95 -5 134 -18 43 -61 65 -128 65 -88 1 -192 19 -205 36 -7 9 -19 14 -27
11 -8 -3 -16 0 -19 7 -4 11 -163 36 -228 36 -28 0 -39 15 -39 56 0 13 -5 24
-11 24 -13 0 -8 39 15 120 27 91 17 210 -17 210 -18 0 -67 79 -67 110 0 20 2
22 11 10 8 -12 9 -10 5 10 -3 14 -6 28 -6 32 0 7 -53 38 -66 38 -3 0 -4 -7 0
-15 3 -9 0 -15 -9 -15 -14 0 -19 12 -16 33 1 8 -3 9 -11 2z m515 -865 l102 0
-29 -27 c-16 -14 -47 -65 -70 -112 -23 -47 -57 -112 -76 -144 -34 -56 -37 -58
-113 -82 -99 -32 -115 -32 -123 0 -3 14 -10 25 -14 25 -4 0 -10 9 -13 20 -3
14 -14 20 -32 20 -22 0 -25 3 -20 21 4 12 16 30 26 40 18 18 18 22 4 42 -8 12
-15 25 -15 29 0 12 57 38 85 38 14 0 25 4 25 8 0 18 38 52 57 52 24 0 48 25
38 40 -3 5 2 23 11 40 18 29 18 29 36 10 16 -17 32 -20 121 -20z m362 -418
c-1 -1 -14 2 -29 8 -15 5 -32 8 -37 5 -5 -4 -6 1 -3 9 3 8 12 17 20 20 8 3 14
13 14 23 0 10 9 0 19 -22 10 -22 17 -41 16 -43z m-74 -22 c5 0 9 -6 9 -14 0
-7 14 -16 31 -20 19 -3 29 -11 26 -18 -2 -7 -9 -12 -15 -11 -6 2 -19 -8 -29
-21 -24 -30 -65 -53 -57 -32 3 9 14 18 25 21 10 4 19 11 19 16 0 6 -4 7 -10 4
-5 -3 -10 1 -10 9 0 9 -4 16 -9 16 -16 0 -21 30 -9 58 9 21 12 23 15 10 3 -10
9 -18 14 -18z m-644 -3 c0 -7 -6 -18 -14 -25 -11 -10 -13 -8 -13 13 0 14 6 25
13 25 8 0 14 -6 14 -13z m811 -176 c3 -76 3 -79 -17 -74 -12 3 -21 9 -21 13 0
10 -47 30 -70 30 -11 0 -20 2 -20 5 0 10 104 105 115 105 6 0 11 -34 13 -79z
m-1713 -451 c3 -5 1 -10 -4 -10 -6 0 -11 5 -11 10 0 6 2 10 4 10 3 0 8 -4 11
-10z m45 0 c0 -5 -5 -10 -11 -10 -5 0 -7 5 -4 10 3 6 8 10 11 10 2 0 4 -4 4
-10z m191 -17 c-12 -20 -14 -14 -5 12 4 9 9 14 11 11 3 -2 0 -13 -6 -23z m-37
-19 c3 -8 2 -12 -4 -9 -6 3 -10 10 -10 16 0 14 7 11 14 -7z m86 12 c0 -3 -4
-8 -10 -11 -5 -3 -10 -1 -10 4 0 6 5 11 10 11 6 0 10 -2 10 -4z m60 -16 c0 -5
-4 -10 -10 -10 -5 0 -10 5 -10 10 0 6 5 10 10 10 6 0 10 -4 10 -10z m-91 -21
c-16 -10 -23 -4 -14 10 3 6 11 8 17 5 6 -4 5 -9 -3 -15z m114 4 c-5 -12 -2
-15 9 -10 10 3 24 -3 34 -14 18 -20 17 -21 -16 -52 -19 -18 -37 -32 -41 -32
-4 0 -10 -3 -14 -6 -3 -4 -17 -2 -31 5 -19 8 -23 16 -19 34 3 12 1 22 -4 22
-6 0 -8 7 -5 15 8 20 24 19 24 -1 0 -11 5 -14 16 -10 9 3 20 6 25 6 5 0 9 14
9 30 0 17 4 30 10 30 5 0 6 -8 3 -17z m-464 -87 c7 -8 8 -17 3 -19 -4 -3 -13
3 -20 14 -14 22 0 26 17 5z m48 -12 c4 -14 -15 -39 -24 -31 -4 5 -1 12 7 18
13 8 13 10 0 20 -12 9 -12 10 -1 7 8 -3 16 -8 18 -14z m220 2 c-3 -8 1 -13 11
-12 9 0 17 -6 17 -14 0 -18 -33 -26 -47 -12 -12 12 -1 52 14 52 5 0 8 -6 5
-14z m87 -12 c3 -8 2 -12 -4 -9 -6 3 -10 10 -10 16 0 14 7 11 14 -7z m183 10
c-3 -4 5 -26 19 -49 28 -49 19 -66 -23 -44 -19 10 -24 19 -20 42 2 15 0 30 -5
33 -12 8 1 24 19 24 9 0 13 -3 10 -6z m934 -16 c1 -13 4 -26 9 -43 3 -11 5
-40 8 -102 1 -30 6 -43 16 -43 13 0 33 -37 24 -44 -1 -2 -20 -6 -40 -10 -30
-5 -38 -4 -38 8 0 8 5 18 10 21 17 11 11 25 -10 25 -15 0 -22 -9 -26 -30 -8
-39 -25 -28 -21 13 2 28 -1 32 -22 29 -23 -2 -24 -1 -17 60 8 66 27 98 58 98
10 0 21 7 24 15 7 18 24 20 25 3z m-1398 -28 c-5 -20 -33 -29 -33 -10 0 6 5
10 10 10 6 0 10 7 10 16 0 8 4 13 9 10 5 -3 7 -15 4 -26z m121 -20 c40 -43 35
-55 -21 -48 -26 3 -28 6 -28 45 0 24 3 43 6 43 3 0 22 -18 43 -40z m-493 15
c0 -6 -10 -12 -23 -13 -19 -4 -20 -2 -9 12 15 17 33 18 32 1z m779 -67 c45 4
55 -12 25 -42 -34 -34 -82 -45 -91 -22 -3 9 -1 22 4 29 7 8 7 18 2 27 -14 22
-12 33 5 26 10 -3 15 1 16 12 1 10 4 7 8 -8 5 -19 13 -24 31 -22z m1425 -7
c-7 -24 -25 -28 -25 -6 0 8 -3 14 -7 13 -14 -5 -14 12 -1 26 18 20 43 -4 33
-33z m-1800 29 c3 -5 2 -10 -4 -10 -5 0 -13 5 -16 10 -3 6 -2 10 4 10 5 0 13
-4 16 -10z m203 -25 c-3 -3 -9 2 -12 12 -6 14 -5 15 5 6 7 -7 10 -15 7 -18z
m72 21 c0 -3 -4 -8 -10 -11 -5 -3 -10 -1 -10 4 0 6 5 11 10 11 6 0 10 -2 10
-4z m944 -52 c4 -31 14 -54 31 -70 36 -33 31 -42 -24 -46 -72 -5 -83 -1 -68
23 10 17 9 22 -6 30 -9 6 -15 15 -11 21 4 7 -5 8 -27 3 -30 -7 -32 -6 -20 9 9
10 29 16 57 16 42 0 44 1 44 30 0 47 17 35 24 -16z m-1238 1 c7 -26 18 -32 29
-14 10 15 45 -19 45 -43 0 -22 -24 -19 -26 3 -1 8 -2 18 -3 23 0 5 -9 2 -18
-6 -28 -24 -70 -31 -77 -13 -3 8 -1 15 4 15 6 0 10 7 10 15 0 8 8 15 18 16 10
0 12 3 5 6 -15 6 -17 23 -3 23 5 0 12 -11 16 -25z m1849 15 c3 -5 1 -10 -4
-10 -6 0 -11 5 -11 10 0 6 2 10 4 10 3 0 8 -4 11 -10z m-9 -35 c14 -13 14 -17
-2 -32 -16 -16 -16 -16 -10 5 5 13 3 22 -3 22 -6 0 -11 -4 -11 -10 0 -5 -5
-10 -10 -10 -6 0 -5 8 2 20 15 24 15 24 34 5z m-1691 -86 c0 -16 -5 -23 -15
-20 -8 1 -25 4 -37 5 -13 0 -23 4 -23 8 0 8 41 23 55 20 6 -1 2 4 -7 11 -26
21 -22 32 5 15 12 -9 22 -26 22 -39z m-120 11 c3 -5 1 -10 -4 -10 -6 0 -11 5
-11 10 0 6 2 10 4 10 3 0 8 -4 11 -10z m1056 -23 c-10 -9 -11 -8 -5 6 3 10 9
15 12 12 3 -3 0 -11 -7 -18z m214 -37 c-4 -6 -15 -8 -26 -5 -29 10 -59 -4 -59
-26 0 -11 6 -19 13 -18 23 3 37 -1 37 -11 0 -5 -6 -10 -13 -10 -7 0 -18 -5
-25 -12 -9 -9 -8 -16 5 -30 15 -16 15 -25 5 -64 -7 -24 -12 -57 -12 -73 0 -38
-9 -61 -24 -61 -6 0 -23 -8 -36 -17 -45 -31 -60 -28 -60 15 -1 20 -7 48 -15
62 -8 14 -14 42 -15 64 0 31 6 44 36 71 33 31 36 36 29 73 -8 47 -1 51 90 61
61 7 83 1 70 -19z m270 11 c-3 -6 -11 -8 -17 -5 -6 4 -5 9 3 15 16 10 23 4 14
-10z m65 9 c0 -5 -4 -10 -10 -10 -5 0 -10 5 -10 10 0 6 5 10 10 10 6 0 10 -4
10 -10z m-530 -21 c0 -6 -6 -25 -14 -42 -8 -18 -17 -45 -21 -62 -6 -27 -8 -28
-17 -11 -6 10 -7 36 -4 57 4 24 2 39 -4 39 -5 0 -10 -5 -10 -11 0 -5 -4 -7
-10 -4 -20 12 -10 34 18 38 51 8 62 7 62 -4z m-127 -26 c3 -15 -1 -23 -10 -23
-7 0 -23 -16 -35 -36 -12 -20 -26 -33 -34 -30 -7 3 -18 -1 -24 -9 -17 -20 -74
1 -65 24 4 9 8 31 11 50 2 18 6 36 8 40 2 3 36 6 74 6 65 0 71 -2 75 -22z
m-403 -94 c3 -52 9 -94 14 -94 5 0 8 44 7 99 l-2 98 63 -4 c47 -3 73 -11 101
-30 21 -15 33 -29 27 -33 -20 -12 -9 -44 23 -69 34 -26 57 -32 71 -18 4 4 11
7 14 7 17 1 52 27 52 38 0 7 5 18 11 24 15 15 79 -16 79 -38 0 -29 -17 -31
-39 -3 -19 24 -22 25 -36 10 -17 -17 -11 -41 8 -29 6 3 1 -8 -12 -25 -26 -37
-35 -41 -26 -11 6 18 5 19 -14 7 -11 -7 -17 -16 -12 -21 12 -12 -10 -67 -26
-67 -10 0 -10 7 -2 28 l10 27 -28 -27 c-17 -16 -40 -28 -55 -28 -28 0 -46 -36
-28 -54 19 -19 10 -26 -30 -26 -27 0 -43 5 -46 15 -7 18 -36 20 -32 3 3 -15
-3 -18 -36 -18 -19 0 -26 7 -31 30 -7 32 -25 41 -26 13 0 -15 -2 -15 -9 2 -8
18 -9 19 -9 1 -1 -12 -6 -16 -17 -12 -9 3 -20 6 -25 6 -5 0 -4 11 1 26 18 46
9 134 -14 134 -6 0 -19 15 -30 33 -11 18 -21 27 -23 20 -3 -7 -20 -13 -39 -13
l-35 0 29 31 c17 18 35 29 41 25 6 -4 9 -12 6 -17 -4 -5 1 -12 9 -15 18 -7 51
22 36 31 -21 13 -9 34 23 38 17 2 37 3 42 2 6 -1 12 -44 15 -96z m1065 90 c11
-16 1 -19 -13 -3 -7 8 -8 14 -3 14 5 0 13 -5 16 -11z m-1718 -36 c-9 -9 -20
-14 -24 -10 -3 4 2 14 13 21 25 19 33 10 11 -11z m1653 12 c10 -12 10 -15 -4
-15 -9 0 -16 7 -16 15 0 8 2 15 4 15 2 0 9 -7 16 -15z m41 -24 c-8 -14 -6 -23
9 -36 11 -10 20 -22 20 -27 0 -10 -14 3 -39 35 -11 14 -11 20 -1 32 17 21 23
19 11 -4z m-311 -37 c0 -25 -3 -43 -7 -41 -5 3 -9 -9 -10 -25 -3 -34 -9 -45
-20 -34 -7 7 -6 65 2 106 4 19 20 39 33 40 1 0 2 -21 2 -46z m272 -13 c-8 -5
-5 -17 8 -39 20 -32 20 -33 1 -22 -14 7 -20 7 -23 -2 -3 -7 -4 16 -4 49 0 55
2 59 15 41 9 -14 10 -22 3 -27z m-226 18 c4 -8 9 -8 17 0 13 13 47 15 47 3 0
-5 -7 -17 -15 -28 -22 -29 -17 -43 6 -15 11 13 21 22 23 20 8 -8 9 -35 2 -54
-4 -11 -12 -32 -17 -46 -6 -14 -9 -46 -8 -72 2 -36 -3 -54 -26 -86 -31 -46
-40 -49 -55 -21 -6 11 -19 20 -30 20 -18 0 -18 2 5 36 14 20 25 44 24 53 0 13
-2 14 -6 1 -11 -27 -33 -44 -45 -32 -6 6 -17 8 -24 5 -8 -3 -14 -1 -14 4 0 16
22 32 36 26 8 -3 14 1 14 11 0 9 -4 16 -10 16 -5 0 -10 5 -10 11 0 6 7 9 15 5
8 -3 15 -1 15 4 0 6 14 10 31 10 27 0 30 -2 19 -15 -6 -8 -10 -20 -7 -27 11
-30 27 46 21 98 -6 48 -10 55 -25 51 -11 -3 -19 0 -19 7 0 25 24 35 36 15z
m172 -40 c-5 -16 -7 -37 -4 -46 6 -15 4 -14 -14 2 -13 12 -18 25 -14 38 4 13
2 17 -5 13 -16 -10 -14 0 4 18 25 25 45 10 33 -25z m172 11 c0 -5 -2 -10 -4
-10 -3 0 -8 5 -11 10 -3 6 -1 10 4 10 6 0 11 -4 11 -10z m-79 -17 c13 -16 12
-17 -3 -4 -17 13 -22 21 -14 21 2 0 10 -8 17 -17z m-1189 -15 c-18 -18 -15
-68 3 -68 28 0 15 -18 -15 -22 -30 -4 -31 -3 -25 26 8 41 26 76 39 76 6 0 5
-5 -2 -12z m904 -25 c-11 -11 -17 4 -9 23 7 18 8 18 11 1 2 -10 1 -21 -2 -24z
m-856 7 c0 -5 -4 -10 -10 -10 -5 0 -10 5 -10 10 0 6 5 10 10 10 6 0 10 -4 10
-10z m577 -33 c-2 -7 2 -20 11 -29 9 -11 11 -18 4 -18 -6 0 -16 8 -21 18 -6 9
-11 11 -11 5 0 -7 -7 -13 -15 -13 -11 0 -15 11 -15 36 0 19 4 33 9 29 5 -3 13
0 17 6 9 14 28 -16 21 -34z m433 2 c0 -6 -5 -7 -11 -3 -8 4 -8 0 0 -15 12 -22
31 -29 31 -11 0 6 11 3 25 -6 l26 -17 -22 -23 c-14 -15 -20 -30 -16 -44 5 -21
5 -21 -15 -3 -19 16 -21 16 -15 1 12 -34 -10 -26 -27 10 -10 20 -22 45 -27 54
-16 31 18 86 44 71 4 -2 7 -9 7 -14z m174 -13 c-3 -9 -10 -16 -15 -16 -5 0 -4
9 3 20 14 22 21 20 12 -4z m-2335 -11 c32 -16 49 -45 26 -45 -7 0 -17 9 -20
20 -4 13 -15 20 -31 20 -13 0 -24 5 -24 10 0 14 16 12 49 -5z m-93 -10 c-7
-19 22 -50 55 -58 13 -4 44 -21 69 -39 43 -31 45 -34 33 -58 -7 -14 -13 -36
-13 -49 0 -20 -2 -21 -15 -11 -8 7 -15 23 -15 37 0 13 -14 45 -31 70 -25 36
-36 44 -55 40 -17 -3 -24 0 -24 11 0 10 -7 13 -22 8 -13 -3 -30 -6 -38 -6 -32
0 30 -44 71 -49 37 -5 44 -11 66 -53 16 -30 23 -58 21 -80 l-4 -33 -8 30 c-18
72 -24 78 -67 72 -34 -4 -38 -3 -28 9 9 11 9 17 -1 29 -16 19 -31 19 -55 1
-17 -12 -18 -17 -7 -40 9 -21 17 -25 36 -20 14 3 27 1 31 -6 10 -16 -15 -31
-39 -24 -12 4 -16 2 -12 -5 4 -6 16 -11 26 -11 10 0 22 -5 25 -10 4 -6 11 -7
17 -4 7 4 8 2 4 -4 -4 -7 -3 -12 3 -12 8 0 41 -54 41 -67 0 -2 -9 2 -20 9 -11
7 -20 18 -20 25 0 21 -52 39 -74 26 -17 -11 -50 -9 -63 4 -7 6 -18 14 -25 16
-10 4 -9 8 2 16 18 13 18 13 -45 16 -33 2 -53 -2 -60 -11 -5 -8 -24 -18 -42
-23 -27 -8 -32 -6 -36 11 -6 19 -6 20 -36 2 -34 -20 -40 -35 -13 -32 35 3 62
-2 62 -11 0 -6 -15 -11 -32 -13 -25 -2 -36 -10 -46 -31 -12 -25 -12 -31 4 -48
21 -23 42 -26 23 -2 -13 15 -12 15 17 0 30 -15 31 -17 20 -52 -11 -34 -29 -45
-41 -25 -4 6 -2 17 4 24 12 14 2 27 -32 39 -9 4 -20 14 -24 23 -3 9 -16 27
-29 39 -16 16 -22 30 -17 42 3 10 3 15 -2 11 -9 -8 -35 15 -35 31 0 6 5 11 10
11 6 0 10 -7 10 -15 0 -8 5 -15 10 -15 6 0 10 5 10 11 0 6 7 17 15 25 8 8 12
21 9 29 -8 19 -43 30 -57 16 -20 -20 -29 -11 -22 22 9 42 24 58 31 32 3 -11
24 -29 47 -40 23 -11 45 -23 48 -28 11 -15 122 -4 127 12 2 6 21 8 45 5 42 -5
42 -5 20 13 -26 21 -19 39 20 48 15 4 25 11 22 15 -3 5 2 15 10 23 8 9 15 20
15 26 0 6 7 11 15 11 8 0 24 9 35 20 11 11 29 21 40 23 11 2 23 6 26 10 12 12
16 8 10 -8z m2374 -35 c13 -8 12 -11 -5 -24 -17 -12 -21 -12 -31 2 -9 13 -9
19 -1 24 15 10 19 10 37 -2z m-1855 -20 c3 -5 1 -10 -4 -10 -6 0 -11 5 -11 10
0 6 2 10 4 10 3 0 8 -4 11 -10z m1250 -48 c-15 -16 -16 -15 -4 12 7 15 15 23
17 16 3 -7 -3 -19 -13 -28z m225 -22 c0 -5 -2 -10 -4 -10 -3 0 -8 5 -11 10 -3
6 -1 10 4 10 6 0 11 -4 11 -10z m-407 -47 c-4 -19 -1 -23 16 -23 16 0 21 6 21
26 0 22 4 25 28 22 23 -3 28 -8 30 -37 5 -48 -6 -84 -23 -78 -7 3 -19 -1 -25
-9 -7 -8 -18 -14 -24 -14 -6 0 -22 -8 -35 -17 -14 -9 -48 -18 -78 -20 -43 -4
-53 -1 -53 11 0 9 -6 16 -12 16 -7 1 3 8 21 16 19 8 47 12 61 9 34 -7 59 17
40 40 -6 8 -9 18 -6 24 4 5 -2 12 -13 16 -27 8 -71 -4 -65 -19 2 -6 -5 -12
-16 -13 -11 -1 -20 2 -20 8 0 5 5 9 12 9 6 0 4 6 -6 13 -10 8 -30 12 -45 9
-20 -4 -23 -2 -14 8 8 8 35 11 87 8 42 -2 76 0 76 4 0 5 7 8 15 8 8 0 15 8 15
18 0 14 2 15 10 2 5 -8 7 -25 3 -37z m367 43 c0 -3 -4 -8 -10 -11 -5 -3 -10
-1 -10 4 0 6 5 11 10 11 6 0 10 -2 10 -4z m-700 -26 c0 -5 -4 -10 -9 -10 -6 0
-13 5 -16 10 -3 6 1 10 9 10 9 0 16 -4 16 -10z m-130 -10 c0 -5 -2 -10 -4 -10
-3 0 -8 5 -11 10 -3 6 -1 10 4 10 6 0 11 -4 11 -10z m230 -46 c0 -11 -20 -24
-38 -23 -8 0 -4 48 6 63 6 10 32 -22 32 -40z m449 9 c20 -15 7 -17 -19 -3 -13
7 -17 16 -13 27 5 14 8 14 11 2 3 -7 12 -19 21 -26z m191 17 c0 -5 -5 -10 -11
-10 -5 0 -7 5 -4 10 3 6 8 10 11 10 2 0 4 -4 4 -10z m-830 -4 c0 -3 -4 -8 -10
-11 -5 -3 -10 -1 -10 4 0 6 5 11 10 11 6 0 10 -2 10 -4z m768 -14 c2 -7 -3
-12 -12 -12 -9 0 -16 7 -16 16 0 17 22 14 28 -4z m382 -25 c0 -4 -7 -2 -15 7
-8 8 -15 21 -15 28 1 14 30 -20 30 -35z m-2770 20 c0 -8 -6 -14 -14 -14 -8 0
-12 6 -9 14 3 7 9 13 14 13 5 0 9 -6 9 -13z m1685 -44 c5 -26 3 -33 -9 -33
-10 0 -16 9 -16 25 0 16 -6 25 -15 25 -21 0 -19 18 3 23 23 5 29 -2 37 -40z
m-952 -17 c-4 -5 -11 -2 -18 7 -16 22 -22 21 -28 -3 -4 -14 -14 -20 -33 -20
l-27 0 21 18 c66 55 65 54 78 30 7 -13 10 -27 7 -32z m2007 39 c11 -13 10 -14
-4 -9 -9 3 -16 10 -16 15 0 13 6 11 20 -6z m-1559 -18 c-13 -13 -26 -3 -16 12
3 6 11 8 17 5 6 -4 6 -10 -1 -17z m-872 -24 c23 -15 41 -33 41 -40 0 -8 12
-13 33 -13 19 -1 44 -11 62 -25 29 -24 29 -25 6 -25 -16 0 -21 -4 -17 -15 7
-19 -3 -19 -23 -1 -19 17 -59 22 -84 11 -10 -4 -21 -4 -25 0 -4 4 -1 10 6 12
6 3 12 18 12 35 0 23 -4 29 -15 24 -8 -3 -14 0 -12 7 1 7 -7 12 -18 13 -41 2
-45 4 -45 24 0 28 30 26 79 -7z m1429 -9 c1 -14 6 -33 12 -44 7 -14 6 -19 -6
-24 -12 -5 -15 -16 -12 -42 3 -27 1 -33 -6 -22 -6 7 -21 13 -34 12 -13 -1 -15
0 -5 3 24 5 53 57 42 74 -11 17 -12 69 -1 69 4 0 9 -11 10 -26z m49 4 c-3 -8
-6 -5 -6 6 -1 11 2 17 5 13 3 -3 4 -12 1 -19z m-151 -24 c-5 -20 -2 -24 16
-25 24 0 23 -1 -27 -20 -10 -4 -26 67 -17 75 13 13 33 -9 28 -30z m-126 -8 c0
-2 -7 -7 -16 -10 -8 -3 -12 -2 -9 4 6 10 25 14 25 6z m303 -38 c-3 -16 -10
-28 -15 -28 -6 0 -8 10 -4 23 3 12 6 29 6 37 0 9 3 10 9 5 5 -6 7 -22 4 -37z
m841 27 c-4 -8 -11 -12 -16 -9 -6 4 -5 10 3 15 19 12 19 11 13 -6z m-2411 -7
c29 -14 36 -28 12 -28 -23 0 -65 22 -59 31 7 12 15 11 47 -3z m-238 -47 c3 -5
1 -12 -5 -16 -5 -3 -10 1 -10 9 0 18 6 21 15 7z m1857 -26 c-6 -36 -19 -40
-14 -4 2 16 8 29 12 29 4 0 5 -11 2 -25z m118 18 c-1 -5 -7 -19 -15 -33 -10
-18 -14 -20 -15 -8 0 23 11 48 21 48 5 0 9 -3 9 -7z m-73 -35 c-3 -7 -5 -2 -5
12 0 14 2 19 5 13 2 -7 2 -19 0 -25z m-1397 12 c4 7 13 9 19 6 17 -11 13 -26
-7 -26 -10 0 -23 -5 -28 -10 -13 -13 -50 13 -40 29 5 8 13 8 28 0 15 -8 22 -8
28 1z m-465 -10 c3 -5 -1 -10 -9 -10 -9 0 -16 -5 -16 -11 0 -7 -10 -9 -24 -5
-14 3 -28 1 -31 -5 -5 -6 -12 -4 -20 8 -12 16 -11 19 13 24 43 10 80 10 87 -1z
m2629 2 c3 -5 -4 -15 -15 -22 -10 -8 -19 -20 -19 -27 0 -20 -17 -15 -34 9 -9
12 -19 18 -23 14 -4 -4 -1 -11 7 -16 8 -5 11 -12 7 -17 -10 -9 -27 15 -27 39
0 19 21 18 46 -2 16 -13 17 -13 11 2 -4 11 0 18 11 21 28 7 31 7 36 -1z
m-2489 -12 c3 -5 15 -10 26 -10 10 0 19 -2 19 -4 0 -2 3 -11 6 -20 5 -13 1
-13 -25 -3 -17 6 -31 17 -31 23 0 7 -6 15 -12 17 -10 4 -10 6 -1 6 6 1 15 -3
18 -9z m130 0 c-3 -5 -12 -10 -18 -10 -7 0 -6 4 3 10 19 12 23 12 15 0z m1595
-30 c0 -5 -5 -10 -11 -10 -5 0 -7 5 -4 10 3 6 8 10 11 10 2 0 4 -4 4 -10z
m770 0 c0 -12 -51 -63 -57 -56 -6 6 38 65 50 65 4 1 7 -3 7 -9z m-2316 -10
c14 -5 26 -17 26 -26 0 -16 -1 -16 -19 0 -12 11 -27 15 -39 11 -11 -3 -23 -1
-27 4 -3 7 0 8 9 5 9 -3 16 -1 16 5 0 13 2 14 34 1z m1156 -9 c0 -6 -4 -13
-10 -16 -5 -3 -10 1 -10 9 0 9 5 16 10 16 6 0 10 -4 10 -9z m285 -9 c-3 -3
-11 0 -18 7 -9 10 -8 11 6 5 10 -3 15 -9 12 -12z m-1510 -2 c3 -5 -3 -10 -14
-10 -12 0 -21 5 -21 10 0 6 6 10 14 10 8 0 18 -4 21 -10z m2325 0 c0 -5 -4
-10 -10 -10 -5 0 -10 5 -10 10 0 6 5 10 10 10 6 0 10 -4 10 -10z m-2420 -15
c0 -8 -4 -15 -10 -15 -5 0 -7 7 -4 15 4 8 8 15 10 15 2 0 4 -7 4 -15z m220 5
c0 -5 -4 -10 -10 -10 -5 0 -10 5 -10 10 0 6 5 10 10 10 6 0 10 -4 10 -10z
m1430 0 c0 -5 -7 -10 -16 -10 -8 0 -12 5 -9 10 3 6 10 10 16 10 5 0 9 -4 9
-10z m-1706 -16 c11 -27 7 -37 -9 -24 -16 14 -20 40 -6 40 5 0 12 -7 15 -16z
m1341 6 c-3 -5 -12 -10 -18 -10 -7 0 -6 4 3 10 19 12 23 12 15 0z m948 -4 c6
-16 -2 -28 -14 -20 -12 7 -11 34 0 34 5 0 11 -6 14 -14z m57 -23 c0 -20 -24
-11 -28 10 -2 12 1 15 12 11 9 -3 16 -13 16 -21z m-2226 10 c4 -5 18 -8 29 -8
12 0 21 -6 20 -12 -2 -7 2 -13 8 -13 6 0 5 -5 -3 -12 -23 -22 -57 -38 -75 -37
-13 1 -10 4 7 10 21 7 20 8 -11 5 -27 -3 -38 0 -47 15 -19 30 -15 40 13 33 20
-5 24 -3 19 10 -4 11 0 16 13 16 11 0 23 -3 27 -7z m2122 -8 c4 -8 11 -15 18
-15 18 -1 62 -73 58 -97 -7 -43 -29 -25 -36 28 -7 51 -7 51 -37 45 -21 -4 -31
-1 -35 9 -8 19 2 45 16 45 6 0 13 -7 16 -15z m-2284 -39 c3 -30 -15 -47 -25
-23 -7 19 4 70 14 60 4 -4 9 -21 11 -37z m2563 34 c-3 -5 -11 -10 -16 -10 -6
0 -7 5 -4 10 3 6 11 10 16 10 6 0 7 -4 4 -10z m35 0 c0 -5 -4 -10 -10 -10 -5
0 -10 5 -10 10 0 6 5 10 10 10 6 0 10 -4 10 -10z m-147 -27 c15 -9 6 -23 -17
-29 -14 -3 -26 -13 -28 -21 -2 -13 -6 -12 -19 3 -12 14 -14 25 -8 42 7 19 13
21 36 16 16 -4 31 -9 36 -11z m-727 -34 c10 -17 -13 -36 -27 -22 -12 12 -4 33
11 33 5 0 12 -5 16 -11z m-1690 -14 c3 -8 14 -17 25 -20 25 -8 25 -26 0 -22
-25 4 -51 26 -51 43 0 19 19 18 26 -1z m2574 -21 c0 -18 -36 -31 -62 -23 -23
6 -31 4 -41 -12 -12 -20 -57 -27 -57 -8 0 5 4 8 9 5 4 -3 17 4 27 15 13 14 26
19 44 15 14 -2 32 -1 40 5 17 10 40 12 40 3z m-2584 -59 c10 -8 14 -15 9 -15
-6 0 -15 4 -20 9 -6 5 -19 11 -30 14 -20 5 -19 5 1 6 11 0 29 -6 40 -14z
m2414 5 c0 -5 -2 -10 -4 -10 -3 0 -8 5 -11 10 -3 6 -1 10 4 10 6 0 11 -4 11
-10z m-17 -39 c10 -12 7 -13 -20 -8 -18 4 -33 3 -33 -1 0 -4 -23 -7 -50 -7
-42 0 -50 3 -50 18 0 16 8 18 71 15 46 -1 74 -7 82 -17z m148 -4 c-14 -14 -60
-15 -54 -1 2 6 17 11 34 11 20 0 26 -4 20 -10z m-347 -14 c18 -14 19 -15 2 -9
-11 4 -23 1 -28 -6 -12 -20 -9 -38 7 -38 20 0 19 -14 -1 -31 -14 -11 -18 -10
-30 6 -8 11 -12 25 -10 31 6 17 -20 39 -29 24 -3 -5 -15 -10 -26 -10 -11 0
-33 -10 -49 -22 -34 -25 -54 -16 -48 23 2 19 12 26 45 34 69 17 143 16 167 -2z
m166 -53 c21 0 35 -16 21 -24 -23 -15 -69 34 -54 57 5 8 9 5 11 -10 2 -15 10
-23 22 -23z m-40 -4 c0 -3 -4 -8 -10 -11 -5 -3 -10 -1 -10 4 0 6 5 11 10 11 6
0 10 -2 10 -4z m120 -5 c0 -14 -18 -23 -30 -16 -6 4 -8 11 -5 16 8 12 35 12
35 0z m-337 -28 c-3 -7 -6 -13 -8 -13 -2 0 -5 6 -8 13 -3 8 1 14 8 14 7 0 11
-6 8 -14z m184 -10 c1 -19 -1 -22 -8 -12 -11 17 -12 39 -1 39 4 0 8 -12 9 -27z
m-247 -3 c0 -5 -4 -10 -10 -10 -5 0 -10 5 -10 10 0 6 5 10 10 10 6 0 10 -4 10
-10z m307 -27 c5 18 23 24 23 7 0 -5 11 -10 25 -10 14 0 25 -6 25 -12 0 -9 3
-8 10 2 8 13 11 12 24 -5 9 -11 16 -14 16 -7 0 14 20 17 20 3 0 -5 -9 -12 -19
-16 -11 -3 -20 -14 -20 -23 -3 -52 -6 -59 -23 -54 -10 2 -18 -1 -18 -8 0 -9
-8 -7 -25 4 -14 9 -30 14 -35 11 -6 -4 -19 15 -31 42 -13 30 -16 49 -10 51 6
2 11 13 12 25 0 21 1 20 11 -3 9 -21 12 -22 15 -7z m-107 -19 c0 -21 146 -167
160 -159 5 3 10 0 10 -8 0 -7 13 -23 29 -35 20 -14 30 -32 33 -56 4 -40 1 -44
-17 -20 -6 9 -22 18 -36 19 -13 1 -27 3 -30 4 -4 0 -10 12 -13 25 -3 14 -18
29 -36 36 -41 17 -124 126 -126 165 -1 17 1 33 3 38 8 13 23 7 23 -9z m-120
-145 c0 -21 -16 -26 -23 -6 -3 9 -9 9 -28 0 -13 -6 -34 -15 -46 -18 -13 -4
-26 -17 -29 -32 -5 -18 -9 -21 -15 -11 -7 10 -9 10 -9 0 0 -7 12 -24 26 -37
l26 -24 -64 -3 c-34 -2 -75 1 -89 5 -24 7 -26 12 -25 59 1 37 6 54 19 62 14 9
21 8 30 -5 15 -20 57 -31 57 -15 0 18 61 45 110 48 55 4 60 2 60 -23z m-592
-26 c4 -14 -63 -18 -94 -6 -16 6 -16 7 2 14 28 12 87 6 92 -8z m605 -10 c-7
-2 -19 -2 -25 0 -7 3 -2 5 12 5 14 0 19 -2 13 -5z m-583 -36 c0 -23 -17 -47
-32 -47 -5 0 -13 12 -19 27 -11 29 0 43 34 43 11 0 17 -8 17 -23z m244 7 l21
-16 -22 7 c-18 5 -25 1 -34 -19 -11 -24 -13 -24 -26 -8 -10 12 -16 14 -19 5
-3 -7 -12 -13 -20 -13 -8 0 -19 -10 -24 -22 -8 -20 -9 -20 -9 -4 -1 18 -2 18
-21 1 -11 -10 -20 -13 -20 -7 0 5 -9 8 -20 5 -17 -5 -20 0 -20 26 0 26 3 30
16 23 22 -12 73 -2 83 17 12 22 87 25 115 5z m424 -42 c6 -2 12 -10 12 -17 0
-13 -17 -15 -35 -3 -6 4 -17 2 -25 -3 -13 -8 -12 -12 4 -24 25 -19 12 -33 -14
-17 -11 7 -27 12 -35 12 -8 0 -15 5 -15 10 0 6 10 10 22 10 28 0 10 20 -20 23
-11 0 -18 5 -15 10 5 8 97 8 121 -1z m-434 -57 c-4 -8 -8 -15 -10 -15 -2 0 -4
7 -4 15 0 8 4 15 10 15 5 0 7 -7 4 -15z m160 -27 c6 -4 -4 -8 -23 -8 -34 0
-34 0 -15 21 13 15 20 17 23 7 2 -7 9 -16 15 -20z m-64 -4 c0 -2 -9 -4 -21 -4
-11 0 -18 4 -14 10 5 8 35 3 35 -6z m-110 -4 c-8 -5 -19 -10 -25 -10 -5 0 -3
5 5 10 8 5 20 10 25 10 6 0 3 -5 -5 -10z m545 -10 c3 -5 1 -10 -4 -10 -6 0
-11 5 -11 10 0 6 2 10 4 10 3 0 8 -4 11 -10z m-31 -17 c3 -8 -8 -15 -30 -19
-38 -7 -49 -2 -42 18 7 16 66 17 72 1z m166 1 c0 -3 -9 -17 -20 -31 -11 -14
-20 -32 -20 -39 0 -8 -4 -14 -10 -14 -13 0 -13 27 1 35 5 4 14 18 19 31 8 21
30 34 30 18z m-302 -43 c-16 -5 -29 22 -15 31 7 4 15 0 18 -10 4 -9 2 -19 -3
-21z m-55 -16 c-3 -9 -8 -14 -10 -11 -3 3 -2 9 2 15 9 16 15 13 8 -4z m87 -25
c0 -5 -8 -10 -17 -10 -15 0 -16 2 -3 10 19 12 20 12 20 0z m-1725 -40 c3 -5 1
-10 -4 -10 -6 0 -11 5 -11 10 0 6 2 10 4 10 3 0 8 -4 11 -10z m215 6 c0 -3 -4
-8 -10 -11 -5 -3 -10 -1 -10 4 0 6 5 11 10 11 6 0 10 -2 10 -4z m-320 -36 c0
-5 -4 -10 -10 -10 -5 0 -10 5 -10 10 0 6 5 10 10 10 6 0 10 -4 10 -10z m144
-19 c-2 -3 -12 3 -22 13 -16 17 -16 18 5 5 12 -7 20 -15 17 -18z m-267 13 c-3
-3 -12 -4 -19 -1 -8 3 -5 6 6 6 11 1 17 -2 13 -5z m223 -4 c20 -12 9 -21 -18
-13 -12 3 -19 9 -16 14 7 11 15 11 34 -1z m-200 -20 c0 -5 -2 -10 -4 -10 -3 0
-8 5 -11 10 -3 6 -1 10 4 10 6 0 11 -4 11 -10z m120 0 c0 -5 -4 -10 -10 -10
-5 0 -10 5 -10 10 0 6 5 10 10 10 6 0 10 -4 10 -10z m25 -20 c3 -5 1 -10 -4
-10 -6 0 -11 5 -11 10 0 6 2 10 4 10 3 0 8 -4 11 -10z m320 0 c-3 -5 -11 -10
-16 -10 -6 0 -7 5 -4 10 3 6 11 10 16 10 6 0 7 -4 4 -10z m-465 -130 c0 -5 -4
-10 -10 -10 -5 0 -10 5 -10 10 0 6 5 10 10 10 6 0 10 -4 10 -10z m70 -126 c0
-8 -5 -12 -10 -9 -6 4 -8 11 -5 16 9 14 15 11 15 -7z"/>
<path d="M4630 3181 c0 -6 5 -13 10 -16 6 -3 10 1 10 9 0 9 -4 16 -10 16 -5 0
-10 -4 -10 -9z"/>
<path d="M3963 2821 c-3 -11 -9 -18 -14 -15 -5 3 -7 10 -4 15 4 5 1 9 -5 9 -7
0 -10 -13 -8 -32 3 -30 6 -33 38 -32 33 0 35 2 35 34 0 41 -32 57 -42 21z"/>
<path d="M3410 2710 c0 -5 7 -10 16 -10 8 0 12 5 9 10 -3 6 -10 10 -16 10 -5
0 -9 -4 -9 -10z"/>
<path d="M3860 2760 c0 -5 5 -10 10 -10 6 0 10 5 10 10 0 6 -4 10 -10 10 -5 0
-10 -4 -10 -10z"/>
<path d="M4336 2694 c-9 -24 -7 -27 9 -10 17 17 19 26 6 26 -5 0 -12 -7 -15
-16z"/>
<path d="M1940 2632 c-19 -9 -20 -44 -2 -50 7 -2 16 5 19 16 3 14 11 18 24 15
23 -6 26 12 3 21 -18 7 -24 7 -44 -2z"/>
<path d="M1635 2470 c-17 -7 -17 -9 -2 -9 10 -1 17 -9 17 -22 0 -11 -4 -17
-10 -14 -5 3 -10 -1 -10 -10 0 -13 4 -14 20 -5 13 7 20 21 20 40 0 32 -3 34
-35 20z"/>
<path d="M4410 2680 c0 -5 5 -10 10 -10 6 0 10 5 10 10 0 6 -4 10 -10 10 -5 0
-10 -4 -10 -10z"/>
<path d="M3646 2465 c-3 -8 -1 -15 4 -15 13 0 22 18 11 24 -5 3 -11 -1 -15 -9z"/>
<path d="M3615 1624 c-18 -28 -15 -40 10 -31 8 4 15 18 15 32 0 31 -4 31 -25
-1z"/>
<path d="M4773 4363 c-7 -2 -13 -9 -13 -15 0 -14 43 -6 48 10 4 12 -12 15 -35
5z"/>
<path d="M4778 4053 c7 -3 16 -2 19 1 4 3 -2 6 -13 5 -11 0 -14 -3 -6 -6z"/>
<path d="M5005 3870 c-26 -29 -14 -33 14 -4 13 13 19 24 14 24 -6 0 -18 -9
-28 -20z"/>
<path d="M4986 3789 c-11 -11 -15 -19 -9 -19 12 0 38 28 32 34 -2 2 -13 -5
-23 -15z"/>
<path d="M4935 3770 c3 -5 8 -10 11 -10 2 0 4 5 4 10 0 6 -5 10 -11 10 -5 0
-7 -4 -4 -10z"/>
<path d="M4908 3738 c-10 -10 -14 -18 -9 -18 10 0 36 29 30 34 -2 1 -12 -6
-21 -16z"/>
<path d="M4937 3727 c-15 -18 -23 -33 -17 -35 5 -2 10 -10 10 -18 0 -19 10
-18 26 4 17 21 18 40 2 24 -7 -7 -16 -12 -20 -12 -16 0 -7 16 17 30 14 9 21
20 17 27 -5 8 -16 2 -35 -20z"/>
<path d="M4847 3729 c7 -7 15 -10 18 -7 3 3 -2 9 -12 12 -14 6 -15 5 -6 -5z"/>
<path d="M4753 3566 c1 -36 11 -48 20 -23 2 7 18 -4 40 -28 20 -22 37 -35 37
-29 0 6 -22 34 -49 63 l-49 52 1 -35z"/>
<path d="M4830 3590 c0 -5 5 -10 10 -10 6 0 10 5 10 10 0 6 -4 10 -10 10 -5 0
-10 -4 -10 -10z"/>
<path d="M4810 3570 c0 -5 5 -10 11 -10 5 0 7 5 4 10 -3 6 -8 10 -11 10 -2 0
-4 -4 -4 -10z"/>
<path d="M4855 3571 c-3 -5 -1 -12 5 -16 5 -3 10 1 10 9 0 18 -6 21 -15 7z"/>
<path d="M4770 3509 c0 -5 5 -7 10 -4 6 3 10 8 10 11 0 2 -4 4 -10 4 -5 0 -10
-5 -10 -11z"/>
<path d="M4710 3444 c1 -13 29 -48 34 -43 2 2 -4 15 -15 28 -10 13 -19 19 -19
15z"/>
<path d="M4701 3393 c34 -43 38 -45 55 -28 9 9 13 19 10 23 -4 3 -11 0 -16 -8
-7 -12 -12 -11 -28 8 -23 26 -41 30 -21 5z"/>
<path d="M4670 3380 c0 -5 5 -10 11 -10 5 0 7 5 4 10 -3 6 -8 10 -11 10 -2 0
-4 -4 -4 -10z"/>
<path d="M4487 3329 c7 -7 15 -10 18 -7 3 3 -2 9 -12 12 -14 6 -15 5 -6 -5z"/>
<path d="M4556 3305 c4 -8 10 -15 15 -15 4 0 6 7 3 15 -4 8 -10 15 -15 15 -4
0 -6 -7 -3 -15z"/>
<path d="M4605 3300 c3 -5 8 -10 11 -10 2 0 4 5 4 10 0 6 -5 10 -11 10 -5 0
-7 -4 -4 -10z"/>
<path d="M4430 3209 c0 -5 5 -7 10 -4 6 3 10 8 10 11 0 2 -4 4 -10 4 -5 0 -10
-5 -10 -11z"/>
<path d="M4690 3200 c0 -5 5 -10 10 -10 6 0 10 5 10 10 0 6 -4 10 -10 10 -5 0
-10 -4 -10 -10z"/>
<path d="M4395 3140 c-3 -5 -1 -10 4 -10 6 0 11 5 11 10 0 6 -2 10 -4 10 -3 0
-8 -4 -11 -10z"/>
<path d="M4330 3120 c0 -5 5 -10 10 -10 6 0 10 5 10 10 0 6 -4 10 -10 10 -5 0
-10 -4 -10 -10z"/>
<path d="M4405 3110 c-3 -6 1 -7 9 -4 18 7 21 14 7 14 -6 0 -13 -4 -16 -10z"/>
<path d="M4310 3084 c0 -8 5 -12 10 -9 6 4 8 11 5 16 -9 14 -15 11 -15 -7z"/>
<path d="M1453 2823 c-7 -2 -13 -14 -13 -24 0 -20 1 -20 30 -2 17 9 30 21 30
25 0 9 -28 9 -47 1z"/>
<path d="M1445 2760 c3 -5 11 -10 16 -10 6 0 7 5 4 10 -3 6 -11 10 -16 10 -6
0 -7 -4 -4 -10z"/>
<path d="M1720 2745 c0 -14 5 -25 11 -25 5 0 7 -4 4 -10 -7 -11 37 -13 73 -4
18 5 20 9 11 20 -6 8 -18 14 -26 14 -8 0 -21 7 -29 15 -24 23 -44 18 -44 -10z"/>
<path d="M1286 2735 c4 -8 14 -15 23 -15 10 0 24 -11 31 -25 16 -30 24 -31 50
-5 11 11 16 20 11 20 -6 0 -12 -4 -16 -10 -3 -5 -13 -6 -21 -3 -12 4 -12 8 -4
13 7 4 9 13 6 19 -4 6 -12 9 -17 6 -5 -4 -9 -1 -9 4 0 6 -13 11 -30 11 -22 0
-28 -4 -24 -15z"/>
<path d="M1444 2709 c-7 -12 12 -29 32 -29 15 0 36 25 27 33 -10 11 -51 8 -59
-4z"/>
<path d="M1840 2699 c0 -6 -8 -9 -17 -8 -30 3 -43 -1 -43 -11 0 -5 7 -10 16
-10 9 0 22 -7 29 -16 10 -15 13 -15 27 0 9 9 22 16 28 16 19 0 6 22 -18 31
-14 5 -22 4 -22 -2z"/>
<path d="M1150 2659 c0 -18 2 -19 15 -9 8 7 15 16 15 21 0 5 -7 9 -15 9 -9 0
-15 -9 -15 -21z"/>
<path d="M2863 2533 c-7 -2 -13 -21 -13 -41 l0 -37 58 -2 59 -1 0 44 c0 42 -2
45 -26 42 -20 -2 -27 -9 -29 -31 -3 -20 -8 -27 -20 -25 -12 3 -16 12 -14 31 1
15 1 27 0 26 -2 0 -9 -3 -15 -6z"/>
<path d="M1204 2489 c-10 -17 13 -36 27 -22 12 12 4 33 -11 33 -5 0 -12 -5
-16 -11z"/>
<path d="M1540 2380 c-13 -8 -12 -10 3 -10 9 0 17 5 17 10 0 12 -1 12 -20 0z"/>
<path d="M1320 2364 c0 -23 -28 -28 -42 -9 -4 6 -8 2 -8 -7 0 -15 9 -18 44
-18 24 0 51 -3 60 -6 12 -5 16 0 16 20 0 23 -3 26 -26 20 -17 -4 -29 -2 -35 7
-7 11 -9 9 -9 -7z"/>
<path d="M905 2283 c-35 -9 -39 -22 -12 -34 15 -7 27 -16 27 -20 0 -4 37 -26
83 -49 94 -49 93 -48 83 -57 -4 -4 -12 -1 -17 7 -7 9 -12 11 -15 4 -2 -6 -22
-9 -44 -7 -22 2 -40 -2 -40 -7 0 -10 29 -13 88 -10 23 1 32 -3 32 -14 0 -21
16 -21 24 0 18 48 -6 99 -56 117 -10 4 -18 14 -18 23 0 12 -6 15 -24 10 -20
-5 -25 -2 -28 16 -2 18 -10 23 -33 25 -16 0 -39 -1 -50 -4z m65 -28 c0 -8 -7
-15 -15 -15 -8 0 -15 7 -15 15 0 8 7 15 15 15 8 0 15 -7 15 -15z"/>
<path d="M2746 2241 c-3 -5 -6 -20 -6 -32 1 -13 -2 -39 -6 -56 -7 -39 8 -44
24 -8 14 31 33 33 29 3 -1 -15 3 -23 13 -23 20 0 38 101 22 117 -8 8 -14 4
-21 -15 -12 -31 -31 -36 -31 -8 0 22 -16 36 -24 22z"/>
<path d="M2920 2240 c-12 -8 -11 -10 8 -10 12 0 22 5 22 10 0 13 -11 13 -30 0z"/>
<path d="M2644 2231 c7 -10 61 -9 72 2 4 4 -12 7 -35 7 -23 0 -40 -4 -37 -9z"/>
<path d="M784 2135 c11 -8 22 -12 25 -9 6 6 -19 24 -34 24 -5 -1 -1 -7 9 -15z"/>
<path d="M3150 2136 c0 -9 5 -16 10 -16 6 0 10 4 10 9 0 6 -4 13 -10 16 -5 3
-10 -1 -10 -9z"/>
<path d="M830 2129 c0 -5 5 -7 10 -4 6 3 10 8 10 11 0 2 -4 4 -10 4 -5 0 -10
-5 -10 -11z"/>
<path d="M910 2130 c0 -5 5 -10 10 -10 6 0 10 5 10 10 0 6 -4 10 -10 10 -5 0
-10 -4 -10 -10z"/>
<path d="M1150 2138 c0 -3 -7 -23 -16 -44 -15 -35 -15 -37 0 -25 22 19 22 -6
0 -38 -16 -22 -16 -23 5 -12 17 9 21 9 21 -3 0 -18 31 -30 40 -15 6 8 9 8 12
-2 2 -7 9 -9 17 -5 10 7 10 10 1 16 -7 4 -9 13 -6 19 5 8 14 7 29 -4 12 -8 28
-15 37 -15 13 0 13 2 0 10 -12 8 -12 11 3 28 9 10 17 26 17 35 0 16 3 16 36 2
39 -16 149 -21 140 -6 -7 11 -140 23 -224 21 -43 -1 -62 2 -57 9 3 6 -2 11
-12 11 -11 0 -24 5 -31 12 -7 7 -12 9 -12 6z"/>
<path d="M2920 2120 c0 -5 14 -10 30 -10 17 0 30 5 30 10 0 6 -13 10 -30 10
-16 0 -30 -4 -30 -10z"/>
<path d="M1045 2090 c-3 -5 1 -10 10 -10 9 0 13 5 10 10 -3 6 -8 10 -10 10 -2
0 -7 -4 -10 -10z"/>
<path d="M3070 2090 c0 -5 4 -10 9 -10 6 0 13 5 16 10 3 6 -1 10 -9 10 -9 0
-16 -4 -16 -10z"/>
<path d="M2715 2070 c-3 -5 -1 -10 4 -10 6 0 11 5 11 10 0 6 -2 10 -4 10 -3 0
-8 -4 -11 -10z"/>
<path d="M3212 2038 c-15 -15 -16 -41 0 -36 13 5 31 48 20 48 -5 0 -13 -5 -20
-12z"/>
<path d="M1310 2000 c0 -5 5 -10 11 -10 5 0 7 5 4 10 -3 6 -8 10 -11 10 -2 0
-4 -4 -4 -10z"/>
<path d="M1335 1980 c-3 -5 0 -10 9 -10 8 0 23 -3 33 -6 16 -5 16 -4 -1 10
-23 19 -32 20 -41 6z"/>
<path d="M3155 1978 c-11 -6 -23 -16 -27 -22 -11 -16 -10 -38 2 -31 6 4 8 11
5 16 -4 5 -1 9 4 9 6 0 11 -9 11 -20 0 -44 35 -16 54 43 6 20 -18 23 -49 5z"/>
<path d="M3130 1890 c0 -10 -10 -37 -22 -60 -19 -35 -20 -42 -8 -50 20 -13 30
-12 30 1 0 5 -4 7 -10 4 -5 -3 -10 1 -10 9 0 9 3 15 8 15 20 -3 31 2 26 14 -3
8 2 20 11 27 21 18 19 47 -5 53 -15 4 -20 0 -20 -13z"/>
<path d="M2140 1880 c0 -5 5 -10 10 -10 6 0 10 5 10 10 0 6 -4 10 -10 10 -5 0
-10 -4 -10 -10z"/>
<path d="M3050 1720 c0 -5 7 -10 15 -10 8 0 15 5 15 10 0 6 -7 10 -15 10 -8 0
-15 -4 -15 -10z"/>
<path d="M3040 1670 c0 -5 5 -10 10 -10 6 0 10 5 10 10 0 6 -4 10 -10 10 -5 0
-10 -4 -10 -10z"/>
<path d="M3025 1620 c3 -5 8 -10 11 -10 2 0 4 5 4 10 0 6 -5 10 -11 10 -5 0
-7 -4 -4 -10z"/>
<path d="M3070 1604 c0 -8 5 -12 10 -9 6 3 10 10 10 16 0 5 -4 9 -10 9 -5 0
-10 -7 -10 -16z"/>
<path d="M3070 1565 c0 -9 5 -15 11 -13 6 2 11 8 11 13 0 5 -5 11 -11 13 -6 2
-11 -4 -11 -13z"/>
<path d="M3638 1441 c-25 -25 -22 -41 6 -41 30 0 40 13 31 40 -8 24 -15 24
-37 1z"/>
<path d="M2302 1261 l-23 -17 21 -23 c11 -13 20 -20 20 -15 0 5 4 3 9 -5 7
-11 14 -9 35 12 32 32 33 41 4 32 -17 -6 -20 -4 -15 9 4 11 3 15 -4 10 -6 -4
-14 -2 -18 4 -4 7 -14 5 -29 -7z m28 -11 c0 -5 -2 -10 -4 -10 -3 0 -8 5 -11
10 -3 6 -1 10 4 10 6 0 11 -4 11 -10z"/>
<path d="M2290 1081 c-5 -11 -22 -22 -37 -24 -22 -4 -21 -5 6 -3 25 1 36 7 42
24 10 27 3 29 -11 3z"/>
<path d="M2125 1040 c3 -5 16 -11 28 -11 17 -1 18 -2 5 -6 -10 -2 -18 -9 -18
-15 0 -5 7 -7 16 -4 9 3 22 6 30 6 22 0 16 16 -11 28 -32 15 -58 16 -50 2z"/>
<path d="M2210 996 c0 -2 8 -10 18 -17 15 -13 16 -12 3 4 -13 16 -21 21 -21
13z"/>
<path d="M2160 900 c0 -11 4 -20 9 -20 13 0 32 26 24 33 -13 14 -33 6 -33 -13z"/>
<path d="M2067 854 c-12 -13 6 -34 31 -34 24 0 25 0 7 20 -19 21 -28 24 -38
14z"/>
</g>
</svg>
